# xmcd
# Track frame offsets:
# 150
# 19736
# 33580
# 43494
# 66243
# 86424
# 105359
# 135589
# 153939
# 167384
#
# Disc length: 2685 seconds
# Revision: 0
# Processed by: cddbd v1.4PL0 Copyright (c) Steve Scherf et al.
# Submitted via: VisiTrax 2.9.5.180 - For more info visit www.synapsa.com
#
DISCID=770a7b0a
DTITLE=Susan Tedeschi - Better Days
DYEAR=1998
DGENRE=
TTITLE0=It's Up To You
TTITLE1=Gonna Write Him A Letter
TTITLE2=Love Never Treats Me Right
TTITLE3=It Hurts Me Too
TTITLE4=Locomotive
TTITLE5=You're On My Hair
TTITLE6=Better Days
TTITLE7=Hound Dog
TTITLE8=I Don't Want Nobody
TTITLE9=Ain't Nobody's Business
EXTD=
EXTT0=
EXTT1=
EXTT2=
EXTT3=
EXTT4=
EXTT5=
EXTT6=
EXTT7=
EXTT8=
EXTT9=
PLAYORDER=
